Coordinates
version=1
nRows=14
nColumns=40
inDegrees=yes

Units are S.I. units (second, meters, Newtons, ...)
Angles are in degrees.

endheader
time	pelvis_tilt	pelvis_list	pelvis_rotation	pelvis_tx	pelvis_ty	pelvis_tz	hip_flexion_r	hip_adduction_r	hip_rotation_r	knee_angle_r	knee_angle_r_beta	ankle_angle_r	subtalar_angle_r	mtp_angle_r	hip_flexion_l	hip_adduction_l	hip_rotation_l	knee_angle_l	knee_angle_l_beta	ankle_angle_l	subtalar_angle_l	mtp_angle_l	lumbar_extension	lumbar_bending	lumbar_rotation	arm_flex_r	arm_add_r	arm_rot_r	elbow_flex_r	pro_sup_r	wrist_flex_r	wrist_dev_r	arm_flex_l	arm_add_l	arm_rot_l	elbow_flex_l	pro_sup_l	wrist_flex_l	wrist_dev_l
     49.88500000	     -6.81174127	     -2.94012528	    -11.26134704	      1.07141783	      0.92838194	      0.51986075	     19.11712582	      2.42801308	     -4.92266515	     18.34517713	     18.34517713	      8.18491578	      3.17972907	     -3.26957689	      2.85415546	     -9.82806150	    -17.06129656	     16.12418656	     16.12418656	     15.86419112	     -7.59834795	      1.60762968	     -8.01407019	      6.69205094	     -0.11685549	    -14.04222201	    -13.37362139	     -6.86845001	     36.82396340	     45.38254528	      0.00000000	      0.00000000	     35.96565826	    -23.27379385	    -17.22435726	     88.14108891	     48.56677194	      0.00000000	      0.00000000
     49.90571429	     -6.78480249	     -3.02447831	    -10.67577352	      1.07143015	      0.92890847	      0.52479034	     18.52681047	      2.69083471	     -5.42784906	     18.02538526	     18.02538526	      8.44779317	      3.17326925	     -3.26127217	      3.31049843	    -10.49804178	    -16.48688938	     17.41561653	     17.41561653	     15.53665938	     -7.75861006	      1.60968615	     -8.08225180	      6.55425060	     -0.24376706	    -13.87331248	    -13.52908236	     -6.86965789	     36.86909269	     45.38571884	      0.00000000	      0.00000000	     34.78552949	    -22.54867376	    -16.77337691	     87.25632349	     48.51306283	      0.00000000	      0.00000000
     49.92642857	     -6.88608768	     -3.13590389	     -9.95075275	      1.07110014	      0.92911042	      0.52945878	     18.07065155	      2.96435798	     -6.11595795	     17.66562581	     17.66562581	      8.68675325	      3.22795858	     -3.27412481	      4.44199076	    -11.36937278	    -15.67647236	     19.59491044	     19.59491044	     15.24327980	     -8.00465814	      1.35938723	     -7.98322155	      6.49247360	     -0.46855692	    -13.58450586	    -13.72450701	     -6.79803241	     36.88814190	     45.38904840	      0.00000000	      0.00000000	     33.66898607	    -21.92475569	    -16.12065164	     85.50840257	     48.43036247	      0.00000000	      0.00000000
     49.94714286	     -6.92933231	     -3.16051551	     -9.18415232	      1.07057614	      0.92925838	      0.53376070	     17.70445146	      3.11459490	     -6.77970177	     17.51897782	     17.51897782	      8.99650129	      3.12852057	     -3.36450339	      5.83807309	    -12.16138622	    -14.73714935	     22.22456268	     22.22456268	     14.76036107	     -8.39889793	      0.87715461	     -7.94205904	      6.34348685	     -0.52201067	    -13.20338792	    -13.92060987	     -6.59836463	     36.81721308	     45.39282549	      0.00000000	      0.00000000	     32.57234748	    -21.16533225	    -15.10234953	     82.96187699	     48.30937569	      0.00000000	      0.00000000
     49.96785714	     -6.80020728	     -3.22121139	     -8.38033006	      1.06993096	      0.92948294	      0.53776345	     17.20590021	      3.26430456	     -7.39087081	     17.44259214	     17.44259214	      9.25833672	      2.93906291	     -3.42137104	      7.41841429	    -12.95880055	    -13.47033398	     25.42313082	     25.42313082	     14.06312507	     -9.14135064	      0.20706363	     -8.18468767	      6.21599954	     -0.62620396	    -12.63589445	    -14.12702146	     -6.52227595	     36.86937477	     45.39530832	      0.00000000	      0.00000000	     31.02130061	    -20.29748157	    -14.30875566	     81.09108226	     48.21295434	      0.00000000	      0.00000000
     49.98857143	     -6.74767974	     -3.17360914	     -7.50638051	      1.06905632	      0.92929414	      0.54130340	     16.96967200	      3.28624949	     -7.89193421	     17.63297327	     17.63297327	      9.66903673	      2.46193208	     -3.58100175	      9.45410546	    -13.56264310	    -11.79781583	     29.03272600	     29.03272600	     12.56799925	    -10.54728313	     -1.78610041	     -8.14136912	      6.02941789	      0.04558153	    -12.24800804	    -14.30482896	     -5.98784930	     36.40280381	     45.41970416	      0.00000000	      0.00000000	     30.62283143	    -19.08405854	    -11.72575004	     76.17987803	     47.95671247	      0.00000000	      0.00000000
     50.00928571	     -6.54298879	     -3.25324991	     -6.57161395	      1.06812980	      0.92894257	      0.54449886	     16.67515290	      3.38639172	     -8.47619387	     18.03986709	     18.03986709	     10.14322490	      1.89347255	     -3.76113236	     11.80573987	    -14.27115476	     -9.93118195	     33.44189624	     33.44189624	     11.52696625	    -11.65865062	     -2.60004342	     -8.43802180	      6.00132988	     -0.31743187	    -11.19305847	    -14.56039483	     -6.05781476	     36.68071525	     45.42528721	      0.00000000	      0.00000000	     28.50817661	    -18.35065105	    -11.06473401	     74.16997545	     47.86392927	      0.00000000	      0.00000000
     50.03000000	     -6.25277855	     -3.33783269	     -5.64180374	      1.06704855	      0.92831284	      0.54735058	     16.45805219	      3.46543178	     -8.96154512	     18.72800535	     18.72800535	     10.73825353	      1.13116007	     -4.00214947	     14.37139075	    -14.82554965	     -7.82167375	     38.22300775	     38.22300775	     10.29199364	    -12.94934857	     -3.29453283	     -8.85480526	      5.98663521	     -0.55043099	     -9.87501175	    -14.79145114	     -6.03880493	     36.84725725	     45.43131581	      0.00000000	      0.00000000	     26.35449575	    -17.48626110	    -10.24948068	     71.70356515	     47.75227614	      0.00000000	      0.00000000
     50.05071429	     -6.05947693	     -3.21249946	     -4.72472199	      1.06582723	      0.92719161	      0.54981205	     16.62629147	      3.34529444	     -9.06976626	     19.86279842	     19.86279842	     11.42678881	     -0.29023011	     -4.02252120	     17.23837964	    -14.84809399	     -5.38426012	     43.13729974	     43.13729974	      8.89418801	    -14.75935589	     -3.43903466	     -8.85427300	      5.73546620	     -0.33844890	     -8.19328199	    -14.99538006	     -5.38822233	     35.44936296	     45.48383300	      0.00000000	      0.00000000	     25.51817049	    -16.47727264	     -7.97495285	     65.24843523	     47.48911447	      0.00000000	      0.00000000
     50.07142857	     -5.70513363	     -3.20510131	     -3.84899395	      1.06475880	      0.92570966	      0.55203271	     16.73459696	      3.28420341	     -9.37812012	     21.25929067	     21.25929067	     12.20815281	     -1.54988978	     -4.25853164	     20.05807638	    -14.93030280	     -3.19341807	     48.24201418	     48.24201418	      7.80750034	    -15.96276840	     -3.17395350	     -9.14386511	      5.61915661	     -0.56637560	     -6.36581859	    -15.17108147	     -5.36196790	     35.60957274	     45.49845001	      0.00000000	      0.00000000	     23.17522878	    -15.64326497	     -6.91499470	     61.84981350	     47.34512538	      0.00000000	      0.00000000
     50.09214286	     -5.22831812	     -3.28212891	     -3.04007449	      1.06364727	      0.92418701	      0.55404509	     16.72982504	      3.34954967	     -9.40895375	     22.66919834	     22.66919834	     13.08395630	     -2.83701011	     -3.98308330	     22.81588262	    -14.86242798	     -0.90193650	     53.37202820	     53.37202820	      7.73491997	    -16.52697963	     -0.34894467	     -9.60389919	      5.62374676	     -0.10502712	     -4.33970024	    -15.44027157	     -4.93961756	     34.36921809	     45.56242977	      0.00000000	      0.00000000	     22.01362349	    -14.38438544	     -5.11133126	     55.96549801	     47.12419506	      0.00000000	      0.00000000
     50.11285714	     -4.71286449	     -3.31024480	     -2.31031318	      1.06269874	      0.92227739	      0.55586849	     16.81715910	      3.35161996	     -9.44159389	     24.35296260	     24.35296260	     14.06216650	     -4.16643836	     -3.71578174	     25.40022347	    -14.64102597	      1.10718274	     58.15851367	     58.15851367	      7.84706382	    -17.00141714	      2.58240212	    -10.04010281	      5.55833777	      0.02957569	     -2.10108852	    -15.62158611	     -4.87063659	     34.00670361	     45.61307812	      0.00000000	      0.00000000	     20.01807464	    -13.34870172	     -3.92686249	     51.26831780	     46.95928051	      0.00000000	      0.00000000
     50.13357143	     -4.20924092	     -3.32688863	     -1.66286650	      1.06188962	      0.92006635	      0.55759030	     16.94223363	      3.35677708	     -9.41703374	     26.07955488	     26.07955488	     14.90434961	     -5.47890324	     -3.89952758	     27.71202835	    -14.40500989	      2.77104607	     62.25607157	     62.25607157	      7.30738847	    -17.69945655	      3.38655988	    -10.45721214	      5.46513627	     -0.09161174	      0.19101981	    -15.72982074	     -4.96087809	     34.59086187	     45.61823845	      0.00000000	      0.00000000	     17.08606322	    -12.51649661	     -3.30651051	     48.21558469	     46.84381272	      0.00000000	      0.00000000
     50.15428571	     -3.59296465	     -3.39723936	     -1.10878792	      1.06124230	      0.91807059	      0.55917500	     16.85899387	      3.48821398	     -9.24369179	     27.67262923	     27.67262923	     15.90433978	     -6.77377200	     -3.12060388	     29.74638994	    -14.12976479	      4.27908884	     65.94261105	     65.94261105	      8.31735339	    -17.91182734	      7.69243044	    -10.92043090	      5.42276263	      0.34946323	      2.92254726	    -15.91330372	     -4.72114422	     33.53921434	     45.68707805	      0.00000000	      0.00000000	     15.49574769	    -11.32616395	     -2.42672516	     42.18542315	     46.68903270	      0.00000000	      0.00000000
